<svg id="Layer_1" data-name="Layer 1" xmlns="http://www.w3.org/2000/svg" viewBox="0 0 762.18 389.21"><defs><style>.cls-1{font-size:187.34px;stroke-width:3px;font-family:berlinsignature;}.cls-1,.cls-2{fill:#fff;stroke:#fff;stroke-miterlimit:10;}</style></defs><title>Logo Watermark</title><text class="cls-1" transform="translate(205.23 298.73)">Shabbir Shakir</text><path class="cls-2" d="M210.38,440.94H353.3a8.61,8.61,0,0,0,8.52-6.7A8.48,8.48,0,0,0,353.53,424H347.6v-7a5.25,5.25,0,0,0-5.25-5.25H221.56a5.25,5.25,0,0,0-5.25,5.25v7h-5.45c-4.58,0-8.69,3.44-8.93,8A8.46,8.46,0,0,0,210.38,440.94Z" transform="translate(-170.95 -328.75)"/><rect class="cls-2" x="41.99" y="115.09" width="137.22" height="47.43"/><rect class="cls-2" x="45.36" y="165.83" width="131.29" height="13.89"/><path class="cls-2" d="M216.31,536.54a15.93,15.93,0,0,0,15.93,15.93h99.43a15.93,15.93,0,0,0,15.93-15.93V511.47H216.31Z" transform="translate(-170.95 -328.75)"/><path class="cls-2" d="M211.62,619.78a12.73,12.73,0,0,0-15.31,15.28,12.58,12.58,0,0,0,9.47,9.47,12.74,12.74,0,0,0,15.3-15.27A12.61,12.61,0,0,0,211.62,619.78Z" transform="translate(-170.95 -328.75)"/><path class="cls-2" d="M389.64,492a3.79,3.79,0,0,0-4.92,2.11L355,568.63H331.51V555.52H236.64v13.11H217.43a9.59,9.59,0,0,0-9.59,9.58v9.88h-3.32a33.08,33.08,0,0,0-33.07,33.07v19.41a33.08,33.08,0,0,0,33.07,33.07h3.32v0H313.06l-14.31,35.87a3.79,3.79,0,1,0,7,2.81l86-215.45A3.79,3.79,0,0,0,389.64,492ZM200.22,651.4a21.19,21.19,0,0,1-10.79-10.79,20.94,20.94,0,0,1,27.75-27.7A21.21,21.21,0,0,1,228,623.71,20.94,20.94,0,0,1,200.22,651.4ZM322,653.28H298A21.13,21.13,0,0,1,298,611h41.2Z" transform="translate(-170.95 -328.75)"/><path class="cls-2" d="M285.94,371.64a4,4,0,0,1-8,0v-38.4a4,4,0,0,1,8,0Z" transform="translate(-170.95 -328.75)"/><path class="cls-2" d="M337,394.35a4,4,0,0,1-6.1-5.1l24.69-29.43a4,4,0,1,1,6.1,5.11Z" transform="translate(-170.95 -328.75)"/><path class="cls-2" d="M232.25,389.37a4,4,0,0,1-6.11,5.1l-24.69-29.42a4,4,0,1,1,6.11-5.11Z" transform="translate(-170.95 -328.75)"/><path class="cls-2" d="M313.24,378.63a4,4,0,0,1-7.47-2.71l6.05-16.62a4,4,0,1,1,7.47,2.71Z" transform="translate(-170.95 -328.75)"/><path class="cls-2" d="M257.29,377.28a4,4,0,1,1-7.48,2.71l-6.05-16.64a4,4,0,0,1,7.47-2.71Z" transform="translate(-170.95 -328.75)"/></svg>