<svg id="Layer_1" data-name="Layer 1" xmlns="http://www.w3.org/2000/svg" viewBox="0 0 177.14 152.69"><title>whatsapp</title><path d="M419.36,591.6c8.11-14,15.67-27.31,23.45-40.45a14.64,14.64,0,0,0,2-9.91c-5-39.57,21.34-76,60.81-84.18,37.81-7.8,76.28,15.24,87.52,52.4,9.6,31.76-2,66.24-28.43,84.53-28.26,19.55-63.94,19-90.78-1.63a10.23,10.23,0,0,0-7.25-2.47c-13,.68-25.94,1.18-38.92,1.7C425.34,591.69,422.88,591.6,419.36,591.6Zm28.24-16.76c8.26-.36,15.58-.48,22.87-1.08a13.09,13.09,0,0,1,10.68,3.79c20.82,18.84,53.78,19.58,76.33,2,22.74-17.75,29.92-50.06,16.66-75-14.45-27.2-45.54-39.59-73.92-29.46-28.73,10.26-44.84,39.37-38.58,69.88a9.92,9.92,0,0,1-1.27,7.57C456.15,559.6,452.15,566.84,447.6,574.84Z" transform="translate(-419.36 -455.55)"/><path d="M481.57,509.91c-.19-10.73,3.93-18.65,13.35-23.6,3.24-1.71,5.51-1.4,7.39,2,2.89,5.25,5.91,10.44,9.16,15.47,2.62,4.05,1.56,6.7-2.3,9-9.47,5.67-9.91,7.12-5,17a108.21,108.21,0,0,0,14.64,21.39c2.72,3.23,5.45,4,9,1.51,11-7.85,10.68-4.53,15.36,4.58,1.67,3.25,3.86,6.25,5.43,9.55,2.56,5.39.65,9.35-5.07,11.22-5,1.64-9.91.84-14.76-.48a33.38,33.38,0,0,1-13.36-6.56c-18.25-15.82-29.89-35.45-33.72-59.48C481.61,510.93,481.6,510.26,481.57,509.91Z" transform="translate(-419.36 -455.55)"/></svg>